<?xml version="1.0" encoding="utf-8"?>
<!-- Generator: Adobe Illustrator 26.0.3, SVG Export Plug-In . SVG Version: 6.00 Build 0)  -->
<svg version="1.1" id="Layer_1" xmlns="http://www.w3.org/2000/svg" xmlns:xlink="http://www.w3.org/1999/xlink" x="0px" y="0px"
	 viewBox="0 0 1004.3 495.9" style="enable-background:new 0 0 1004.3 495.9;" xml:space="preserve">
<style type="text/css">
	.st0{fill:url(#SVGID_1_);}
	.st1{fill:url(#SVGID_00000102530518760989415930000000246973160659870128_);}
	.st2{fill:url(#SVGID_00000054972833999053009260000011247343262839924375_);}
	.st3{fill:url(#SVGID_00000033357345621038140100000007615667059960550588_);}
	.st4{fill:url(#SVGID_00000074437029422132010990000002548695528426369436_);}
	.st5{fill:url(#SVGID_00000012451615386263651650000006365160238721810072_);}
	.st6{fill:url(#SVGID_00000030461700628889796430000004274661324490700478_);}
	.st7{fill:url(#SVGID_00000129897330152577678140000014897456262294829228_);}
	.st8{fill:url(#SVGID_00000089552208988867044070000004455697464754496161_);}
	.st9{fill:url(#SVGID_00000173876717017465415080000007809580973821987715_);}
	.st10{fill:url(#SVGID_00000136382161983911159960000009815526426970608271_);}
	.st11{fill:url(#SVGID_00000047782755018294518690000006816989995267958656_);}
</style>
<g>
	
		<radialGradient id="SVGID_1_" cx="622.5137" cy="597.422" r="609.9369" gradientTransform="matrix(1.0895 0 0 -1 -44.2329 498)" gradientUnits="userSpaceOnUse">
		<stop  offset="5.745701e-03" style="stop-color:#0093FF"/>
		<stop  offset="1" style="stop-color:#0A0051"/>
	</radialGradient>
	<path class="st0" d="M1004.3,371.6v-1.8c-0.5,0.3-1.1,0.7-1.6,1C1003.2,371.1,1003.8,371.3,1004.3,371.6z"/>
	
		<linearGradient id="SVGID_00000137115489349568668470000002108349569778854328_" gradientUnits="userSpaceOnUse" x1="489.0344" y1="-86.7151" x2="540.9108" y2="884.9698">
		<stop  offset="0" style="stop-color:#023349"/>
		<stop  offset="1" style="stop-color:#00BCCB"/>
	</linearGradient>
	<path style="fill:url(#SVGID_00000137115489349568668470000002108349569778854328_);" d="M0-2.7v323.3c39.2,2.8,38,71,75.7,57.1
		c40.9-15,50.5-13.8,173.3,23.8s296.1,11.3,495.3-33.8c28.9-6.5,55.2-11,78.9-13.8c-28.3-26.6-46-64.3-46-106
		c0-80.5,65.6-145.8,146.6-145.8c29.7,0,57.4,8.8,80.5,23.9V-2.7H0z"/>
	
		<radialGradient id="SVGID_00000145740928049051907410000004166703851867051407_" cx="622.5137" cy="597.422" r="609.9369" gradientTransform="matrix(1.0895 0 0 -1 -44.2329 498)" gradientUnits="userSpaceOnUse">
		<stop  offset="5.745701e-03" style="stop-color:#0093FF"/>
		<stop  offset="1" style="stop-color:#0A0051"/>
	</radialGradient>
	<path style="fill:url(#SVGID_00000145740928049051907410000004166703851867051407_);" d="M777.2,247.9c0,41.8,17.7,79.5,46,106
		c101.7-12,156.9,6.1,179.5,16.8c0.5-0.3,1.1-0.7,1.6-1V126.1c-23.1-15.1-50.7-23.9-80.5-23.9C842.9,102.1,777.2,167.4,777.2,247.9z
		"/>
	
		<linearGradient id="SVGID_00000118386721774267516010000013288573063843935397_" gradientUnits="userSpaceOnUse" x1="980.9736" y1="456.3837" x2="823.3491" y2="7.4533">
		<stop  offset="0" style="stop-color:#023349"/>
		<stop  offset="1" style="stop-color:#00BCCB"/>
	</linearGradient>
	<path style="fill:url(#SVGID_00000118386721774267516010000013288573063843935397_);" d="M777.2,247.9c0,41.8,17.7,79.5,46,106
		c101.7-12,156.9,6.1,179.5,16.8c0.5-0.3,1.1-0.7,1.6-1V126.1c-23.1-15.1-50.7-23.9-80.5-23.9C842.9,102.1,777.2,167.4,777.2,247.9z
		"/>
	
		<radialGradient id="SVGID_00000124149063555076392690000017708009076472684982_" cx="622.5137" cy="597.422" r="609.9369" gradientTransform="matrix(1.0895 0 0 -1 -44.2329 498)" gradientUnits="userSpaceOnUse">
		<stop  offset="5.745701e-03" style="stop-color:#0093FF"/>
		<stop  offset="1" style="stop-color:#0A0051"/>
	</radialGradient>
	<path style="fill:url(#SVGID_00000124149063555076392690000017708009076472684982_);" d="M923.8,393.7
		c-38.9,0-74.3-15.1-100.6-39.8c-23.7,2.8-49.9,7.2-78.9,13.8c-199.2,45.1-372.5,71.4-495.3,33.8s-132.4-38.8-173.3-23.8
		C38,391.6,39.2,323.4,0,320.6v67.6c23.8,9.5,29.8,33.8,61.6,27.6c41.7-8.2,51.5-7.5,176.7,13s302,6.2,505.1-18.5
		c151.5-18.4,230.4-6.3,260.8,1v-39.8c-0.5-0.3-1-0.5-1.6-0.8C979.9,385.3,952.9,393.7,923.8,393.7z"/>
	
		<radialGradient id="SVGID_00000020388736957780052750000018158524515056479378_" cx="622.5137" cy="597.422" r="609.9369" gradientTransform="matrix(1.0895 0 0 -1 -44.2329 498)" gradientUnits="userSpaceOnUse">
		<stop  offset="5.745701e-03" style="stop-color:#0093FF"/>
		<stop  offset="1" style="stop-color:#0A0051"/>
	</radialGradient>
	<path style="fill:url(#SVGID_00000020388736957780052750000018158524515056479378_);" d="M1002.7,370.8
		c-22.5-10.7-77.8-28.8-179.5-16.8c26.2,24.6,61.6,39.8,100.6,39.8C952.9,393.7,979.9,385.3,1002.7,370.8z"/>
	
		<radialGradient id="SVGID_00000029013665029024060210000009303993781798074295_" cx="861.5427" cy="472.5967" r="405.492" gradientTransform="matrix(1.0053 0 0 -1 -0.1308 498)" gradientUnits="userSpaceOnUse">
		<stop  offset="5.745701e-03" style="stop-color:#0093FF"/>
		<stop  offset="1" style="stop-color:#0A0051"/>
	</radialGradient>
	<path style="fill:url(#SVGID_00000029013665029024060210000009303993781798074295_);" d="M1002.7,370.8
		c-22.5-10.7-77.8-28.8-179.5-16.8c26.2,24.6,61.6,39.8,100.6,39.8C952.9,393.7,979.9,385.3,1002.7,370.8z"/>
	
		<linearGradient id="SVGID_00000057844927989470404990000001235643062624736167_" gradientUnits="userSpaceOnUse" x1="689.072" y1="912.3651" x2="-143.8136" y2="-1459.7772">
		<stop  offset="0" style="stop-color:#023349"/>
		<stop  offset="1" style="stop-color:#00BCCB"/>
	</linearGradient>
	<path style="fill:url(#SVGID_00000057844927989470404990000001235643062624736167_);" d="M1002.6,370.7
		C1002.6,370.7,1002.6,370.7,1002.6,370.7C980,360,924.7,342,823.3,354c0,0-0.1-0.1-0.1-0.1c-23.7,2.8-49.9,7.2-78.9,13.8
		c-199.2,45.1-372.5,71.4-495.3,33.8c-122.8-37.6-132.4-38.8-173.3-23.8C38,391.6,39.2,323.4,0,320.6v67.6
		c23.8,9.5,29.8,33.8,61.6,27.6c41.7-8.2,51.5-7.5,176.7,13s302,6.2,505.1-18.5c151.5-18.4,230.4-6.3,260.8,1v-39.8
		C1003.7,371.2,1003.2,371,1002.6,370.7z"/>
	
		<linearGradient id="SVGID_00000006700366906051333170000015187489490952729498_" gradientUnits="userSpaceOnUse" x1="494.7784" y1="624.1283" x2="513.4007" y2="199.8059">
		<stop  offset="0" style="stop-color:#023349"/>
		<stop  offset="1" style="stop-color:#00BCCB"/>
	</linearGradient>
	<path style="fill:url(#SVGID_00000006700366906051333170000015187489490952729498_);" d="M0,480.8c29.9,6,90.8,10.4,209.1-5.4
		c78.9-10.5,121.1-19.8,257.4-15.7s340.9,34.3,416.1,33.7c74.1-0.6,83.7-9.2,26.4-14.2c-152.5-13.4,36.4-16.1,95.2-16.6V452H0V480.8
		z"/>
	
		<radialGradient id="SVGID_00000176012392924559392440000017505244793982385340_" cx="622.5137" cy="597.422" r="609.9369" gradientTransform="matrix(1.0895 0 0 -1 -44.2329 498)" gradientUnits="userSpaceOnUse">
		<stop  offset="5.745701e-03" style="stop-color:#0093FF"/>
		<stop  offset="1" style="stop-color:#0A0051"/>
	</radialGradient>
	<path style="fill:url(#SVGID_00000176012392924559392440000017505244793982385340_);" d="M743.4,410.4
		c-203.2,24.6-379.9,39-505.1,18.5s-135-21.2-176.7-13c-31.8,6.3-37.8-18.1-61.6-27.6V452h1004.3v-40.6
		C973.9,404.1,894.9,392,743.4,410.4z"/>
	
		<radialGradient id="SVGID_00000004525069782768223030000005584027189990941826_" cx="635.3135" cy="480.6485" r="948.0306" gradientTransform="matrix(1.0895 0 0 -1 -44.2329 498)" gradientUnits="userSpaceOnUse">
		<stop  offset="5.745701e-03" style="stop-color:#0093FF"/>
		<stop  offset="1" style="stop-color:#0A0051"/>
	</radialGradient>
	<path style="fill:url(#SVGID_00000004525069782768223030000005584027189990941826_);" d="M743.4,410.4
		c-203.2,24.6-379.9,39-505.1,18.5s-135-21.2-176.7-13c-31.8,6.3-37.8-18.1-61.6-27.6V452h1004.3v-40.6
		C973.9,404.1,894.9,392,743.4,410.4z"/>
	
		<linearGradient id="SVGID_00000005948799984940418250000010406752047816152199_" gradientUnits="userSpaceOnUse" x1="493.201" y1="624.0591" x2="511.8233" y2="199.7367">
		<stop  offset="0" style="stop-color:#023349"/>
		<stop  offset="1" style="stop-color:#00BCCB"/>
	</linearGradient>
	<path style="fill:url(#SVGID_00000005948799984940418250000010406752047816152199_);" d="M743.4,410.4
		c-203.2,24.6-379.9,39-505.1,18.5s-135-21.2-176.7-13c-31.8,6.3-37.8-18.1-61.6-27.6V452h1004.3v-40.6
		C973.9,404.1,894.9,392,743.4,410.4z"/>
</g>
</svg>
