<svg width="322" height="380" viewBox="0 0 322 380" fill="none" xmlns="http://www.w3.org/2000/svg">
<path d="M321.84 84.48C320.9 38.82 283.74 1.52001 238.09 0.420012C189.68 -0.749988 150.07 38.14 150.07 86.29C150.07 89.09 150.21 91.86 150.47 94.6C151.44 104.65 143.52 113.33 133.43 113.33H133.21C59.66 113.33 0.0300293 172.96 0.0300293 246.51C0.0300293 320 59.73 379.7 133.22 379.7C206.77 379.7 266.4 320.07 266.4 246.52C266.4 237.62 265.53 228.93 263.86 220.53C258.89 195.42 268.84 169.69 288.97 153.88C309.43 137.79 322.41 112.64 321.84 84.48Z" fill="url(#paint0_linear_602_56)"/>
<defs>
<linearGradient id="paint0_linear_602_56" x1="196.932" y1="298.96" x2="45.2929" y2="-245.742" gradientUnits="userSpaceOnUse">
<stop stop-color="#123247"/>
<stop offset="1" stop-color="#00BAC9"/>
</linearGradient>
</defs>
</svg>
