<?xml version="1.0" encoding="UTF-8"?><svg id="a" xmlns="http://www.w3.org/2000/svg" viewBox="0 0 800 314"><defs><style>.b,.c{fill:#fff;}.d{fill:#44c7ef;}.c{fill-rule:evenodd;}</style></defs><path class="c" d="M214.1975,103.1644l.8351,5.0105c.6484,4.5995,.9276,9.2435,.8351,13.8875,.0222,10.2688-1.1776,20.5038-3.5742,30.489-3.1754,13.5426-8.759,26.4042-16.4846,37.9714-8.9354,13.2361-21.7624,26.1466-40.4683,36.677l-2.3048,1.3027-2.3132-1.3027c-18.7059-10.4135-31.6331-23.4409-40.46-36.677-7.7508-11.5585-13.3416-24.4265-16.5013-37.9798-2.3972-9.988-3.5971-20.2258-3.5742-30.4974-.0414-4.6429,.2376-9.2831,.8351-13.8875l.7349-5.0105c.109-.3906,.109-.8036,0-1.1942-.0657-.4055-.2486-.7828-.5261-1.0856-.2244-.3275-.5075-.6107-.8351-.8351-.3257-.1914-.6773-.3348-1.0439-.4259-.378-.1176-.7828-.1176-1.1608,0-.398,.0639-.7659,.2508-1.0522,.5345-.328,.2238-.6113,.507-.8351,.8351-.2029,.3736-.3466,.7765-.4259,1.1942l-.8351,5.0105c-.6296,4.9298-.9447,9.8947-.9437,14.8646-.0074,10.7821,1.2653,21.5269,3.7913,32.0089,1.6691,7.1423,3.9892,14.1166,6.9312,20.8354,2.9158,6.7059,6.4319,13.1344,10.5054,19.207,9.353,13.9961,23.015,27.6664,42.5894,38.5226l3.6827,2.0543c.4577,.2222,.9611,.3337,1.4697,.3257,.5074-.0037,1.0083-.1147,1.4697-.3257l3.6827-2.0543c19.541-10.8561,33.2031-24.6351,42.5894-38.5226,8.1727-12.1914,14.0821-25.7555,17.445-40.0424,2.4967-10.4857,3.7441-21.23,3.7161-32.0089-.0023-5.0058-.3175-10.0066-.9437-14.9731l-.8351-5.0105c-.0941-.4124-.2341-.813-.4175-1.1942-.2266-.3257-.5093-.6085-.8351-.8351-.3292-.2199-.6822-.402-1.0522-.5428-.3764-.109-.776-.109-1.1524,0-.4021,.1003-.7916,.246-1.1608,.4342-.3474,.1995-.6355,.4877-.8351,.8351-.2129,.3412-.3866,.7054-.5177,1.0856l-.025,1.3194Z"/><path class="c" d="M108.2667,99.799l44.769-14.1046,45.7127,14.4303c.3772,.0895,.7651,.1261,1.1524,.1086,.4063-.0039,.8042-.1164,1.1524-.3257,.3621-.1915,.685-.4493,.952-.7599,.2805-.3008,.4638-.6791,.5261-1.0856,.0831-.3895,.1167-.7879,.1002-1.1858-.0046-.4199-.1106-.8324-.309-1.2025-.185-.3643-.434-.6924-.7349-.9687-.2881-.2828-.6548-.472-1.0522-.5428l-46.6647-14.756c-.5714-.2256-1.2073-.2256-1.7787,0l-45.6124,14.4303c-.3819,.1128-.739,.297-1.0522,.5428-.3258,.2527-.5793,.5868-.7349,.9687-.2148,.3639-.3246,.7801-.3173,1.2025-.0226,.3985,.014,.7981,.1086,1.1858,.1094,.3887,.2845,.7559,.5177,1.0856,.249,.3308,.5761,.5948,.952,.7683,.346,.2136,.7459,.3237,1.1524,.3173,.39,.0134,.78-.0231,1.1608-.1086Z"/><path class="c" d="M86.1954,104.1415l64.1096,129.2297c.1965,.5106,.5659,.9362,1.0439,1.2025,.9757,.5673,2.1809,.5673,3.1566,0,.4875-.2871,.8863-.7033,1.1524-1.2025l39.0988-75.5169,.1086-.1086,25.0025-53.7128c.1656-.3797,.2726-.7823,.3173-1.1942,.0328-.4093-.0391-.8203-.2088-1.1942-.106-.414-.3259-.7901-.6347-1.0856-.239-.335-.5654-.5978-.9437-.7599-.3453-.2161-.7451-.3291-1.1524-.3257-.3879-.0199-.7765,.0195-1.1524,.1169-.4101,.1029-.7797,.327-1.0606,.643-.3219,.26-.5744,.5957-.7349,.9771l-25.0109,53.7128-36.3597,70.3143-61.3705-124.0271c-.2123-.349-.4585-.6763-.7349-.9771-.3078-.2778-.6646-.4958-1.0522-.643-.3523-.2035-.775-.2461-1.1608-.1169-.4052,.0111-.8013,.123-1.1524,.3257-.3418,.2175-.6583,.4724-.9437,.7599-.236,.3292-.414,.6964-.5261,1.0856-.139,.3819-.1764,.7934-.1086,1.1942,.0058,.4527,.1143,.8981,.3173,1.3027Z"/><path class="c" d="M116.8848,161.6539h71.3665c.3921-.0203,.7798-.0934,1.1524-.2171,.368-.1271,.6943-.3524,.9437-.6514,.2826-.2736,.4996-.6076,.6347-.9771,.2787-.7717,.2787-1.6166,0-2.3883-.1496-.362-.3648-.6932-.6347-.9771-.2577-.2898-.5813-.5132-.9437-.6514-.37-.1336-.7591-.2069-1.1524-.2171H116.8848c-.395,.0196-.7854,.0926-1.1608,.2171-.368,.1271-.6943,.3524-.9437,.6514-.2826,.2736-.4996,.6076-.6347,.9771-.2787,.7717-.2787,1.6166,0,2.3883,.1227,.3755,.3415,.7123,.6347,.9771,.26,.2872,.583,.5101,.9437,.6514,.3727,.1343,.7647,.2077,1.1608,.2171Z"/><g><path class="c" d="M315.9195,172.8476h-46.4475c-.3949,.0203-.7853,.0933-1.1608,.2171-.3658,.1315-.691,.356-.9437,.6514-.2699,.2822-.4826,.614-.6263,.9771-.1177,.3881-.1878,.7891-.2088,1.1942v38.5226c.021,.405,.0911,.806,.2088,1.1942,.1166,.3763,.3331,.714,.6263,.9771,.2717,.2735,.5916,.4943,.9437,.6514,.3729,.1335,.7648,.2068,1.1608,.2171h46.4475v6.5137h-46.4475c-.6017-.0152-1.2004-.0908-1.7871-.2255-.6105-.1282-1.2085-.3098-1.7871-.5428-.5652-.1913-1.0955-.4733-1.57-.8351-.4866-.3622-.9445-.7614-1.3696-1.1942-.8658-.8631-1.5452-1.8949-1.9959-3.0314-.2393-.5951-.4157-1.2137-.5261-1.8455-.119-.6086-.1888-1.2258-.2088-1.8455v-38.414c.0138-.6202,.0837-1.2379,.2088-1.8455,.1249-.6285,.3008-1.2457,.5261-1.8455,.1851-.5987,.4673-1.1629,.8351-1.6702,.323-.5172,.7102-.9914,1.1524-1.4113,.4294-.4255,.8869-.8217,1.3696-1.1858,.4873-.3413,1.0146-.6218,1.57-.8351,.5747-.2441,1.1738-.4261,1.7871-.5428,.588-.1258,1.1861-.1985,1.7871-.2171h46.4475v6.3968l.0084-.0251Z"/><polygon class="c" points="403.0441 166.3423 403.0441 172.8476 358.3753 172.8476 358.3753 191.946 394.284 191.946 394.284 198.5683 358.3752 198.5683 358.3752 217.6667 403.044 217.6667 403.044 224.1804 352.1037 224.1804 352.1037 166.3423 403.0441 166.3423"/><path class="b" d="M495.1041,176.1044v16.9272c-.0138,.6202-.0837,1.2379-.2088,1.8455-.1278,.6287-.3065,1.2459-.5345,1.8455-.1871,.5979-.469,1.1618-.8351,1.6702-.3538,.4918-.7388,.9604-1.1524,1.4029-.4309,.4291-.8884,.8307-1.3696,1.2025-.5014,.3227-1.0295,.602-1.5783,.8351-.5739,.2481-1.1732,.4329-1.7871,.5512-.5888,.1194-1.1866,.1892-1.7871,.2088h-8.5095l17.5368,21.4868h-8.3509l-17.445-21.4868h-20.4346c-1.0246-.0018-2.0462-.1109-3.0481-.3257v21.8125h-6.3049v-57.621h46.5561c.6018,.0078,1.2009,.0806,1.7871,.2171,.6089,.1307,1.2065,.3094,1.7871,.5345,.5584,.2299,1.0881,.5242,1.5783,.8768,.9781,.7154,1.8256,1.5939,2.5053,2.5971,.3229,.5333,.6022,1.0918,.8351,1.6702,.2422,.5948,.4213,1.2134,.5345,1.8455,.1221,.6282,.1975,1.2646,.2254,1.904Zm-46.5561,19.9669h37.3033c.395-.0196,.7854-.0926,1.1608-.2171,.3872-.0864,.7256-.32,.9437-.6514,.2824-.2722,.4969-.6068,.6263-.9771,.1343-.3843,.2075-.7872,.2171-1.1942v-16.9272c.016-.8051-.2837-1.5844-.8351-2.1712-.5106-.6362-1.2889-.9976-2.1044-.9771h-37.3117c-.396,.0103-.7878,.0836-1.1608,.2171-.3669,.1294-.6926,.3542-.9437,.6514-.2699,.2822-.4826,.614-.6263,.9771-.1246,.3868-.1976,.7883-.2171,1.1942v16.9272c-.0249,.83,.3247,1.6272,.952,2.1712,.4497,.6511,1.2058,1.0213,1.9959,.9771Z"/><path class="c" d="M528.5242,166.3423h55.8005v6.5053h-24.6935v51.2159h-6.3049v-51.2159h-24.8021v-6.5053Zm89.7385,57.7212v-57.7212h6.3133v57.7212h-6.3133Zm90.1894-57.7212h8.092l-23.349,28.8606,23.4409,28.8606h-8.2006l-20.802-25.6038h-17.9711v25.6038h-6.3133v-57.7212h6.4135v25.6038h17.9711l20.7185-25.6038Z"/></g><g><path class="d" d="M710.6733,94.4298c-9.59,0-18.1313-4.4679-23.6733-11.4298-5.5419,6.962-14.0833,11.4298-23.6733,11.4298-.6532,0-1.2995-.0279-1.9423-.0687,1.4345,32.31,25.1976,40.0801,25.6156,40.0023,.418,.0778,24.1811-7.6922,25.6156-40.0023-.6429,.0408-1.2892,.0687-1.9423,.0687Z"/><polygon class="b" points="683.4465 120.5629 672.9562 110.0725 677.3541 105.6758 683.4465 111.7683 697.8304 97.3844 702.2283 101.7811 683.4465 120.5629"/></g><g><path class="b" d="M297.7744,128.3984l-2.3296-6.7993h-13.3608l-2.3296,6.7993h-5.4678l12.4097-33.853h4.1367l12.4092,33.853h-5.4678Zm-8.8911-26.1982l-5.2778,15.0249h10.4131l-5.1353-15.0249Z"/><path class="b" d="M329.1543,128.6836c-6.8945,0-12.125-4.707-12.125-11.6963v-22.4419h5.1357v22.2041c0,4.5171,2.7568,7.3223,6.9893,7.3223s7.0361-2.8052,7.0361-7.3223v-22.2041h5.1357v22.4419c0,6.9893-5.2783,11.6963-12.1719,11.6963Z"/><path class="b" d="M379.7881,125.2129c-2.1396,2.1396-5.2295,3.1855-8.748,3.1855h-11.8867v-33.853h11.8867c3.5186,0,6.6084,1.0459,8.748,3.1855,3.6611,3.6611,3.4238,8.606,3.4238,13.5034s.2373,10.3174-3.4238,13.9785Zm-3.5186-23.7734c-1.4258-1.5688-3.3281-2.2822-5.7529-2.2822h-6.2285v24.6294h6.2285c2.4248,0,4.3271-.7134,5.7529-2.2822,1.7598-1.9497,1.8076-5.6108,1.8076-10.27s-.0479-7.8452-1.8076-9.7949Z"/><path class="b" d="M400.3262,128.3984v-33.853h5.1348v33.853h-5.1348Z"/><path class="b" d="M435.2725,99.1572v29.2412h-5.1357v-29.2412h-9.3184v-4.6118h23.7725v4.6118h-9.3184Z"/><path class="b" d="M459.9473,128.3984v-33.853h21.6338v4.6118h-16.499v9.8896h14.0742v4.5645h-14.0742v10.1753h16.499v4.6118h-21.6338Z"/><path class="b" d="M518.7598,125.2129c-2.1396,2.1396-5.2295,3.1855-8.748,3.1855h-11.8867v-33.853h11.8867c3.5186,0,6.6084,1.0459,8.748,3.1855,3.6611,3.6611,3.4238,8.606,3.4238,13.5034s.2373,10.3174-3.4238,13.9785Zm-3.5186-23.7734c-1.4258-1.5688-3.3281-2.2822-5.7529-2.2822h-6.2285v24.6294h6.2285c2.4248,0,4.3271-.7134,5.7529-2.2822,1.7598-1.9497,1.8076-5.6108,1.8076-10.27s-.0479-7.8452-1.8076-9.7949Z"/><path class="b" d="M573.9111,128.3984h-13.6934v-33.853h13.1699c6.2764,0,10.2227,3.5659,10.2227,9.2715,0,3.6611-2.2822,6.2764-4.5645,7.1797,2.6152,1.0459,5.0879,3.5659,5.0879,7.8452,0,6.2285-4.2314,9.5566-10.2227,9.5566Zm-.9512-29.2412h-7.6074v9.6997h7.6074c3.2812,0,5.5156-1.7119,5.5156-4.8496s-2.2344-4.8501-5.5156-4.8501Zm.4756,14.3115h-8.083v10.3179h8.083c3.5664,0,5.5625-2.1875,5.5625-5.1826s-1.9961-5.1353-5.5625-5.1353Z"/><path class="b" d="M612.3262,114.4673v13.9312h-5.1348v-13.9312l-10.1279-19.9219h5.6113l7.084,14.8818,7.084-14.8818h5.6113l-10.1279,19.9219Z"/></g></svg>