<svg version="1.1" id="Layer_1" xmlns="http://www.w3.org/2000/svg" x="0px" y="0px" viewBox="0 0 441.4 546.5" width="24px" color="text" class="sc-bcXHqe dkuEOs"><g><g><path fill="#E28531" d="M111.8,400.8c-35.9-6.2-62.1-35.1-66.4-69.5c-6.9,9.6-11.8,20.8-14,33.3c-7.6,43.9,21.9,85.7,65.8,93.2&#10;&#9;&#9;&#9;c43.9,7.6,85.7-21.9,93.2-65.8c1.4-8.1,1.5-16,0.5-23.7C173.5,392.6,143.3,406.2,111.8,400.8z"/><path fill="#DFDFDE" d="M105.8,437.2C61.9,429.7,32.4,387.9,40,344c0.4-2.3,1-4.4,1.5-6.6c-4.9,8.2-8.4,17.3-10.1,27.2&#10;&#9;&#9;&#9;c-7.6,43.9,21.9,85.7,65.8,93.2c41.7,7.2,81.3-19,91.7-59.2C172.4,426.7,139.8,443.1,105.8,437.2z"/><path fill="#2F211B" d="M111,464.6c-4.9,0-9.9-0.4-14.7-1.3c-22.7-3.9-42.5-16.4-55.8-35.2c-13.3-18.8-18.5-41.7-14.6-64.4&#10;&#9;&#9;&#9;c2.2-12.9,7.2-24.8,14.9-35.6c1.3-1.9,3.7-2.7,5.9-2.2c2.2,0.6,3.9,2.4,4.2,4.7c4.1,33,29,59,61.8,64.7&#10;&#9;&#9;&#9;c28.2,4.9,57.1-7.2,73.8-30.4c1.3-1.9,3.7-2.7,5.9-2.2c2.2,0.6,3.9,2.4,4.2,4.7c1.1,8.5,0.9,17-0.6,25.4&#10;&#9;&#9;&#9;C188.8,434.4,153.1,464.6,111,464.6z M42.9,346.5c-2.9,6-4.9,12.4-6,19.1c-3.4,19.8,1.1,39.7,12.7,56.1&#10;&#9;&#9;&#9;c11.6,16.4,28.8,27.3,48.6,30.7c4.3,0.7,8.6,1.1,12.8,1.1c36.6,0,67.7-26.2,73.9-62.4c0.5-2.8,0.8-5.5,1-8.3&#10;&#9;&#9;&#9;c-19.5,19.2-47.7,28.3-75.1,23.6C78,400.7,52.2,377.4,42.9,346.5z"/><g><g><path fill="#E28531" d="M161.5,509.8c0,0-16.3,0-42.2,0c-30.4,0-36.3-18.2-42.5-42.5c-7.6-29.5,9-64.9,40.6-55.4&#10;&#9;&#9;&#9;&#9;&#9;C149,421.4,161.5,509.8,161.5,509.8z"/><path fill="#2F211B" d="M161.8,515.4c-0.1,0-0.2,0-0.3,0h-42.2c-35.9,0-42.3-24.8-47.9-46.7c-4.6-17.8-1.2-37.5,8.7-50.2&#10;&#9;&#9;&#9;&#9;&#9;c9.4-12.2,23.5-16.6,38.9-11.9c32.5,9.8,45.6,85.8,47.8,100.8c0.4,0.7,0.6,1.6,0.6,2.5C167.4,512.9,164.9,515.4,161.8,515.4z&#10;&#9;&#9;&#9;&#9;&#9; M107.2,415.8c-9.1,0-15,5.1-18.3,9.4c-7.7,9.9-10.4,26.2-6.7,40.6c6.3,24.5,11.2,38.4,37.1,38.4H155c-4.6-26.9-18-80.6-39.3-87&#10;&#9;&#9;&#9;&#9;&#9;C112.8,416.3,109.9,415.8,107.2,415.8z"/></g><g><path fill="#E28531" d="M296.4,509.8c0,0,16.3,0,42.2,0c30.4,0,36.3-18.2,42.5-42.5c7.6-29.5-9-64.9-40.6-55.4&#10;&#9;&#9;&#9;&#9;&#9;C308.9,421.4,296.4,509.8,296.4,509.8z"/><path fill="#2F211B" d="M338.7,515.4h-42.2c-1.6,0-3.2-0.7-4.2-1.9c-1.1-1.2-1.5-2.8-1.3-4.4c1.3-9.4,14-92.2,48.1-102.5&#10;&#9;&#9;&#9;&#9;&#9;c15.4-4.7,29.5-0.3,38.9,11.9c9.9,12.7,13.3,32.4,8.7,50.2C380.9,490.5,374.5,515.4,338.7,515.4z M302.9,504.2h35.7&#10;&#9;&#9;&#9;&#9;&#9;c26,0,30.8-13.9,37.1-38.4c3.7-14.3,1-30.6-6.7-40.6c-4.3-5.6-13.9-12-26.9-8.1C320.9,423.6,307.5,477.3,302.9,504.2z"/></g></g><g><path fill="#E28531" d="M337.6,364.5l-23.7-25.9L229,352.1L144,338.6l-23.7,25.9c0,0-6.3,61.8,6.7,95.1s50.3,50.1,50.3,50.1H229&#10;&#9;&#9;&#9;&#9;h51.6c0,0,37.2-16.8,50.3-50.1S337.6,364.5,337.6,364.5z"/><path fill="#2F211B" d="M280.6,515.4H177.4c-0.8,0-1.6-0.2-2.3-0.5c-1.6-0.7-39.5-18.1-53.2-53.1c-13.4-34.2-7.4-95.2-7.1-97.7&#10;&#9;&#9;&#9;&#9;c0.1-1.2,0.6-2.3,1.4-3.2l23.7-25.9c1.3-1.4,3.1-2,5-1.7l84,13.4l84-13.4c1.8-0.3,3.7,0.4,5,1.7l23.7,25.9c0.8,0.9,1.3,2,1.4,3.2&#10;&#9;&#9;&#9;&#9;c0.3,2.6,6.3,63.6-7.1,97.7c-13.7,35-51.6,52.4-53.2,53.1C282.1,515.2,281.3,515.4,280.6,515.4z M178.6,504.2h100.7&#10;&#9;&#9;&#9;&#9;c5.9-2.9,35.5-18.8,46.4-46.5c11.2-28.6,7.5-80.4,6.6-90.7l-20.4-22.3l-82,13c-0.6,0.1-1.2,0.1-1.8,0l-82-13l-20.4,22.3&#10;&#9;&#9;&#9;&#9;c-0.9,10.3-4.6,62.2,6.6,90.7C143.1,485.4,172.7,501.3,178.6,504.2z"/></g><path fill="#F1A847" d="M117,344.7c0,0-38.3,22.1-7,99.9c31.4,77.8,49.3,75.5,66.8,75.5c13.6,0,25.8-1.3,25.8-28.2&#10;&#9;&#9;&#9;c0-31.4,0-50.7,0-50.7"/><path fill="#E28531" d="M132,440.6c-18.1-44.9-13-71.2-5.4-85.4l-9.3-10.5c0,0-38.3,22.1-7,99.9c31.4,77.8,49.4,75.5,66.8,75.5&#10;&#9;&#9;&#9;c6.8,0,13.2-0.3,17.9-3.9C178.7,516,161.1,512.8,132,440.6z"/><path fill="#F1A847" d="M340.9,344.7c0,0,38.3,22.1,7,99.9c-31.4,77.8-49.3,75.5-66.8,75.5c-13.6,0-25.8-1.3-25.8-28.2&#10;&#9;&#9;&#9;c0-31.4,0-50.7,0-50.7"/><path fill="#E28531" d="M325.9,440.6c18.1-44.9,13-71.2,5.4-85.4l9.3-10.5c0,0,38.3,22.1,7,99.9c-31.4,77.8-49.4,75.5-66.8,75.5&#10;&#9;&#9;&#9;c-6.8,0-13.2-0.3-17.9-3.9C279.2,516,296.8,512.8,325.9,440.6z"/><path fill-rule="evenodd" clip-rule="evenodd" fill="#FFFFFF" d="M200.2,507.5c0,8-12.7,14.5-28.5,14.5c-15.7,0-28.4-6.5-28.4-14.5c0-8,12.7-14.5,28.4-14.5&#10;&#9;&#9;&#9;C187.5,493,200.2,499.5,200.2,507.5z"/><path fill-rule="evenodd" clip-rule="evenodd" fill="#DFDFDE" d="M159.3,494.5c-8.6,2.2-14.7,6.5-15.7,11.6c13,14.6,23.4,14,33.5,14c4.7,0,9.1-0.2,13-1.5&#10;&#9;&#9;&#9;c1.7-0.7,3.2-1.5,4.5-2.4C184.3,516,173.3,514.3,159.3,494.5z"/><path fill-rule="evenodd" clip-rule="evenodd" fill="#FFFFFF" d="M314.6,507.5c0,8-12.7,14.5-28.4,14.5c-15.7,0-28.5-6.5-28.5-14.5c0-8,12.7-14.5,28.5-14.5&#10;&#9;&#9;&#9;C301.9,493,314.6,499.5,314.6,507.5z"/><path fill-rule="evenodd" clip-rule="evenodd" fill="#DFDFDE" d="M314.3,506.1c-1-5.1-7.1-9.4-15.7-11.6c-14.1,19.8-25,21.5-35.3,21.6c1.3,0.9,2.8,1.7,4.5,2.4&#10;&#9;&#9;&#9;c3.9,1.3,8.3,1.5,13,1.5C290.9,520,301.3,520.7,314.3,506.1z"/><path fill="#FFFFFF" d="M309.8,337L229,318.1L148.1,337c0,0-33.3,22.5-4.1,61.7c29.2,39.2,58.6,49.9,58.6,75.5c0,0,9.7,9.6,26.3,9.6&#10;&#9;&#9;&#9;s26.3-9.6,26.3-9.6c0-25.6,29.4-36.3,58.6-75.5C343,359.5,309.8,337,309.8,337z"/><path fill-rule="evenodd" clip-rule="evenodd" fill="#DFDFDE" d="M294.4,366c-4-0.3-9.3,2.3-13.2,3.5c-17.4,5.3-34.8,10.6-52.3,15.9c-17.4-5.3-34.8-10.6-52.3-15.9&#10;&#9;&#9;&#9;c-3.9-1.2-9.2-3.9-13.2-3.5c-0.9,0.1,1,6.1,2.1,7.3c29.2,30.9,36.9,63.9,37.9,78.4c0.2,3.1-2.5,0.4-1.6,3.4&#10;&#9;&#9;&#9;c1.1,3.7-1.7,16.8,0.7,19.1c0,0,9.7,9.6,26.3,9.6s26.3-9.6,26.3-9.6c2.4-2.4-0.4-15.4,0.7-19.1c0.9-3-1.8-0.4-1.6-3.4&#10;&#9;&#9;&#9;c1-14.5,8.7-47.5,37.9-78.4C293.4,372,295.2,366,294.4,366z"/><path fill="#2F211B" d="M174.8,525.6c-22.4,0-40.6-6.1-70-79c-32.8-81.4,7.6-105.8,9.4-106.8c2.7-1.5,6.1-0.6,7.6,2&#10;&#9;&#9;&#9;c1.5,2.7,0.6,6-2,7.6c-1.5,0.9-33.5,21.4-4.6,93c29.1,72.1,45,72.3,60.1,72h1.5c11.8,0,20.3,0,20.3-22.6v-50.7&#10;&#9;&#9;&#9;c0-3.1,2.5-5.6,5.6-5.6c3.1,0,5.6,2.5,5.6,5.6v50.7c0,31.1-16.2,33.7-31.4,33.7l-1.5,0C175.2,525.6,175,525.6,174.8,525.6z"/><path fill="#2F211B" d="M283.1,525.6c-0.2,0-0.3,0-0.5,0l-1.5,0c-15.2,0-31.4-2.6-31.4-33.7v-50.7c0-3.1,2.5-5.6,5.6-5.6&#10;&#9;&#9;&#9;c3.1,0,5.6,2.5,5.6,5.6v50.7c0,22.6,8.5,22.6,20.3,22.6h1.5c15.2,0.3,31,0.1,60.1-72c28.9-71.7-3.2-92.1-4.6-93&#10;&#9;&#9;&#9;c-2.6-1.6-3.5-5-1.9-7.6c1.6-2.6,4.9-3.5,7.6-2c1.7,1,42.1,25.4,9.4,106.8C323.7,519.5,305.5,525.6,283.1,525.6z"/></g><g><g><path fill="#C83734" d="M229,334.7L229,334.7L229,334.7c-43.5,0-83.5-6.6-115-20.9v35.4c24.4,18,71.4,27.3,115,27.3h0h0&#10;&#9;&#9;&#9;&#9;c43.5,0,90.6-9.3,115-27.3v-35.4C312.4,328.1,272.5,334.7,229,334.7z"/><path fill="#A42A29" d="M229,324.2L229,324.2L229,324.2c-43.5,0-83.5-6.6-115-20.9v35.4c24.4,18,71.4,27.3,115,27.3h0h0&#10;&#9;&#9;&#9;&#9;c43.5,0,90.6-9.3,115-27.3v-35.4C312.4,317.6,272.5,324.2,229,324.2z"/><path fill="#2F211B" d="M229,382.1c-38.6,0-89.9-7.5-118.3-28.4c-1.4-1.1-2.3-2.7-2.3-4.5v-35.4c0-1.9,1-3.7,2.6-4.7&#10;&#9;&#9;&#9;&#9;c1.6-1,3.6-1.2,5.3-0.4c29.3,13.4,68.3,20.4,112.6,20.4c44.3,0,83.3-7.1,112.7-20.4c1.7-0.8,3.7-0.6,5.3,0.4&#10;&#9;&#9;&#9;&#9;c1.6,1,2.6,2.8,2.6,4.7v35.4c0,1.8-0.8,3.4-2.3,4.5C318.9,374.6,267.6,382.1,229,382.1z M119.6,346.3&#10;&#9;&#9;&#9;&#9;c22.3,15,64.7,24.6,109.4,24.6h0c44.7,0,87.1-9.6,109.4-24.6v-24.1c-29.7,11.8-67.3,18.1-109.4,18.1c-42.1,0-79.7-6.2-109.4-18.1&#10;&#9;&#9;&#9;&#9;V346.3z"/><g><rect x="215.9" y="331.8" fill="#CED1D2" width="26.1" height="45.3"/><path fill="#2F211B" d="M242,382.7h-26.1c-3.1,0-5.6-2.5-5.6-5.6v-45.3c0-3.1,2.5-5.6,5.6-5.6H242c3.1,0,5.6,2.5,5.6,5.6v45.3&#10;&#9;&#9;&#9;&#9;&#9;C247.6,380.2,245.1,382.7,242,382.7z M221.5,371.5h15v-34.1h-15V371.5z"/></g><path fill="#F5E15C" d="M253.3,397.3c0,13.5-10.9,24.4-24.4,24.4c-13.5,0-24.4-10.9-24.4-24.4c0-13.5,10.9-24.4,24.4-24.4&#10;&#9;&#9;&#9;&#9;C242.4,372.9,253.3,383.9,253.3,397.3z"/><path fill="#FFFFFF" d="M229,372.9c-1.1,0-2.1,0.2-3.2,0.3c8.7,2.7,15.1,10.7,15.1,20.3c0,11.8-9.6,21.3-21.3,21.3&#10;&#9;&#9;&#9;&#9;c-3.4,0-6.6-0.9-9.5-2.3c4.5,5.5,11.2,9.1,18.9,9.1c13.5,0,24.4-10.9,24.4-24.4C253.3,383.9,242.4,372.9,229,372.9z"/><path fill="#2F211B" d="M229,427.3c-16.5,0-30-13.4-30-30c0-16.5,13.4-30,30-30c16.5,0,30,13.4,30,30&#10;&#9;&#9;&#9;&#9;C258.9,413.8,245.5,427.3,229,427.3z M229,378.5c-10.4,0-18.8,8.4-18.8,18.8c0,10.4,8.4,18.8,18.8,18.8&#10;&#9;&#9;&#9;&#9;c10.4,0,18.8-8.4,18.8-18.8C247.8,387,239.3,378.5,229,378.5z"/></g><g><path fill="#F1A847" d="M397.8,171.9c18.6-60.5,3.4-140.4-19.6-143.1c-22.8-2.7-56.5,25.3-71,38.5C284.3,55.9,258.1,49,229,49h0h0&#10;&#9;&#9;&#9;&#9;c-29.2,0-55.3,6.9-78.2,18.3c-14.5-13.2-48.2-41.2-71-38.5c-23,2.7-38.2,82.6-19.6,143.1c-6.9,19.5-10.8,39.7-10.8,59.4&#10;&#9;&#9;&#9;&#9;c0,85.7,80.4,120.4,179.6,120.4h0h0c99.2,0,179.6-34.7,179.6-120.4C408.6,211.6,404.8,191.4,397.8,171.9z"/><path fill="#F5CB71" d="M79.7,42c22.8-2.7,56.5,25.3,71,38.5c22.9-11.5,49.1-18.3,78.2-18.3h0h0c29.2,0,55.3,6.9,78.2,18.3&#10;&#9;&#9;&#9;&#9;c14.5-13.2,48.2-41.2,71-38.5c15,1.8,26.6,36.3,27.8,76.9c1.3-46-11.2-88.2-27.8-90.1c-22.8-2.7-56.5,25.3-71,38.5&#10;&#9;&#9;&#9;&#9;C284.3,55.9,258.1,49,229,49h0h0c-29.2,0-55.3,6.9-78.2,18.3c-14.5-13.2-48.2-41.2-71-38.5c-16.6,2-29.1,44.1-27.8,90.1&#10;&#9;&#9;&#9;&#9;C53.1,78.4,64.7,43.8,79.7,42z"/><path fill="#FFFFFF" d="M408.4,227c-1.1,35.4-50.1,48.9-88.2,13.6c-38.5-35.7-56.7-59.5-91.2-59.5s-52.7,23.8-91.2,59.5&#10;&#9;&#9;&#9;&#9;c-38.1,35.3-87.1,21.8-88.2-13.6c0,1.4-0.2,2.8-0.2,4.2c0,85.7,80.4,120.4,179.6,120.4h0h0c99.2,0,179.6-34.7,179.6-120.4&#10;&#9;&#9;&#9;&#9;C408.6,229.8,408.4,228.4,408.4,227z"/><path fill="#DFDFDE" d="M407.8,229.7c-0.1,0.8-0.3,1.6-0.5,2.4c-14,68.1-88.4,96.4-178.4,96.4h0h0c-90,0-164.4-28.3-178.4-96.4&#10;&#9;&#9;&#9;&#9;c-0.2-0.8-0.3-1.6-0.5-2.4c-0.2-1.1-0.5-2.2-0.7-3.4c-0.1,0.9-0.1,1.9-0.1,2.8c0,85.7,80.4,120.4,179.6,120.4h0h0&#10;&#9;&#9;&#9;&#9;c99.2,0,179.6-34.7,179.6-120.4c0-0.9-0.1-1.8-0.1-2.8C408.3,227.5,408,228.6,407.8,229.7z"/><path fill="#2F211B" d="M229,357.2c-117.7,0-185.2-45.9-185.2-126c0-19.4,3.5-39.4,10.5-59.5C39.4,121.7,46.6,60,62.6,35.4&#10;&#9;&#9;&#9;&#9;C67.4,28.1,73,24,79,23.3c23-2.7,54.6,21.4,72.6,37.4c48.2-22.9,106.4-22.9,154.6,0c18-16,49.7-40.1,72.6-37.4&#10;&#9;&#9;&#9;&#9;c6.1,0.7,11.6,4.8,16.4,12.2c16,24.6,23.3,86.2,8.4,136.3c6.9,20.1,10.5,40.1,10.5,59.5C414.2,311.3,346.7,357.2,229,357.2z&#10;&#9;&#9;&#9;&#9; M82.8,34.2c-0.9,0-1.7,0-2.5,0.1c-2.6,0.3-5.5,2.9-8.4,7.2c-14.8,22.7-20.8,82.6-6.6,128.7c0.4,1.1,0.3,2.4-0.1,3.5&#10;&#9;&#9;&#9;&#9;c-6.9,19.4-10.4,38.8-10.4,57.5c0,103.6,121.7,114.8,174.1,114.8h0c52.3,0,174.1-11.2,174.1-114.8c0-18.7-3.5-38.1-10.4-57.5&#10;&#9;&#9;&#9;&#9;c-0.4-1.1-0.4-2.4-0.1-3.5c14.2-46.1,8.2-106-6.6-128.7c-2.8-4.3-5.8-6.9-8.4-7.2c-20.6-2.3-53.8,25.5-66.6,37.1&#10;&#9;&#9;&#9;&#9;c-1.7,1.5-4.2,1.9-6.3,0.9c-47-23.5-104.5-23.5-151.4,0c-2.1,1-4.5,0.7-6.3-0.9C134.7,60.3,103.8,34.2,82.8,34.2z"/><path fill="#D17529" d="M397.8,171.8c16.4-53.1,6.6-121-11.7-138.5c-2.3,1-33.9,15.4-55.8,48C362.2,104.2,385.3,136.8,397.8,171.8z&#10;&#9;&#9;&#9;&#9;"/><path fill="#BA5727" d="M326.9,81.6c14.2-21.1,32.2-34.4,44-41.6c13.2,19,20.4,65.4,13.5,109C371.1,122.9,351.7,99.3,326.9,81.6z"/><path fill="#2F211B" d="M397.8,177.4c-2.4,0-4.5-1.5-5.3-3.7c-12.6-35.4-35.9-66.6-65.5-87.8c-2.4-1.8-3.1-5.1-1.4-7.6&#10;&#9;&#9;&#9;&#9;c22.6-33.6,54.6-48.4,58.2-50c2-0.9,4.5-0.5,6.1,1.1c20,19.2,30,89.5,13.2,144.2c-0.7,2.3-2.8,3.9-5.2,3.9&#10;&#9;&#9;&#9;&#9;C397.9,177.4,397.9,177.4,397.8,177.4z M338,80.1c24.9,19,45.2,44.7,58.6,73.9c9.2-46,0.8-96.7-11.8-113.8&#10;&#9;&#9;&#9;&#9;C376.3,44.6,354.8,57.3,338,80.1z"/><path fill="#D17529" d="M127.6,81.4c-21.9-32.6-53.5-47-55.8-48c-18.3,17.5-28.1,85.4-11.7,138.5C72.6,136.8,95.7,104.2,127.6,81.4&#10;&#9;&#9;&#9;&#9;z"/><path fill="#BA5727" d="M131,81.6C116.8,60.5,98.8,47.1,87,40c-13.2,19-20.4,65.4-13.5,109C86.9,122.9,106.2,99.3,131,81.6z"/><path fill="#2F211B" d="M60.1,177.4c0,0-0.1,0-0.1,0c-2.4-0.1-4.5-1.6-5.2-3.9c-16.8-54.7-6.8-125,13.2-144.2c1.6-1.6,4.1-2,6.1-1.1&#10;&#9;&#9;&#9;&#9;c3.6,1.6,35.6,16.4,58.2,50c1.7,2.5,1.1,5.9-1.4,7.6c-29.6,21.2-52.9,52.4-65.5,87.8C64.5,175.9,62.4,177.4,60.1,177.4z&#10;&#9;&#9;&#9;&#9; M73.2,40.2C60.5,57.3,52.1,108,61.3,154c13.4-29.2,33.7-54.9,58.6-73.9C103.1,57.3,81.6,44.6,73.2,40.2z"/><g><path fill="#2F211B" d="M163.6,184.8c1.9,14.2-9.1,20.5-23.3,22.3c-14.3,1.8-26.4-1.4-28.3-15.6c-1.9-14.2,8.2-27.3,22.4-29.2&#10;&#9;&#9;&#9;&#9;&#9;C148.7,160.5,161.8,170.5,163.6,184.8z"/><path fill="#FFFFFF" d="M149.4,179.7c-0.3,4.4-4.2,7.8-8.6,7.5c-4.4-0.3-7.8-4.2-7.5-8.6c0.3-4.4,4.2-7.8,8.6-7.5&#10;&#9;&#9;&#9;&#9;&#9;C146.4,171.4,149.7,175.3,149.4,179.7z"/></g><g><path fill="#2F211B" d="M294.3,184.8c-1.9,14.2,9.1,20.5,23.3,22.3c14.3,1.8,26.4-1.4,28.3-15.6c1.9-14.2-8.2-27.3-22.4-29.2&#10;&#9;&#9;&#9;&#9;&#9;C309.2,160.5,296.1,170.5,294.3,184.8z"/><path fill="#FFFFFF" d="M308.5,179.7c0.3,4.4,4.2,7.8,8.6,7.5c4.4-0.3,7.8-4.2,7.5-8.6c-0.3-4.4-4.2-7.8-8.6-7.5&#10;&#9;&#9;&#9;&#9;&#9;C311.5,171.4,308.2,175.3,308.5,179.7z"/></g><path fill="#FFFFFF" d="M159,149.9c-10,0-20.2-4.9-20.2-14.4c0-9.7,11.9-18.1,21.6-18.1c10.6,0,16.9,9.2,16.9,18.1&#10;&#9;&#9;&#9;&#9;C177.2,144.2,170,149.9,159,149.9z"/><path fill="#CED1D2" d="M229,205.9c-18.4,0-31.7,6.8-31.7,16.1c0,12,14.1,26.4,31.7,26.4s31.7-14.4,31.7-26.4&#10;&#9;&#9;&#9;&#9;C260.7,212.6,247.3,205.9,229,205.9z"/><path fill="#FFFFFF" d="M299,149.9c-11.1,0-18.2-5.7-18.2-14.4c0-8.9,6.3-18.1,16.9-18.1c9.7,0,21.6,8.3,21.6,18.1&#10;&#9;&#9;&#9;&#9;C319.2,144.9,309,149.9,299,149.9z"/><path fill="#2F211B" d="M203.4,262c-2.3,0-4.5-0.3-6.7-1.1c-15-5.3-21.8-22.6-22-23.4c-1.1-2.9,0.3-6.1,3.2-7.2&#10;&#9;&#9;&#9;&#9;c2.8-1.1,6.1,0.3,7.2,3.2c0.1,0.1,5.3,13.3,15.4,16.9c6.8,2.5,17.7-4.7,22.9-8.9v-23.1c0-3.1,2.5-5.6,5.6-5.6&#10;&#9;&#9;&#9;&#9;c3.1,0,5.6,2.5,5.6,5.6V244c0,1.6-0.7,3-1.8,4.1C230.9,249.7,217.1,262,203.4,262z"/><g><path fill="#2F211B" d="M235.3,248.9c-3.8-2.6-6.3-4.9-6.3-4.9v-6c0,0-0.1,0-0.1,0v6c0,0-2.5,2.3-6.3,4.9&#10;&#9;&#9;&#9;&#9;&#9;C226.8,249.1,231.1,249.1,235.3,248.9z"/><path fill="#2F211B" d="M259.3,255.6c-2.5,0.9-5.2,0.8-7.9,0.4c0,0.2,0,0.2,0,0.4c0,17-11.3,33.7-22.9,33.7&#10;&#9;&#9;&#9;&#9;&#9;c-11.6,0-22.9-16.7-22.9-33.7c0-0.1,0-0.2,0-0.3c-2.4,0.3-4.8,0.3-7.1-0.5c-1.3-0.5-2.6-1.1-3.7-1.8c-0.1,0.9-0.3,1.6-0.3,2.6&#10;&#9;&#9;&#9;&#9;&#9;c0,21.2,14.6,44.9,34,44.9c19.5,0,34-23.7,34-44.9c0-0.9-0.2-1.4-0.3-2.2C261.3,254.7,260.4,255.2,259.3,255.6z"/></g><path fill="#2F211B" d="M229,244v-0.3c0,0-0.1,0-0.1,0v0.2c0,0-16.2,14.7-28.8,11.9c0,0.2-0.1,0.3-0.1,0.5&#10;&#9;&#9;&#9;&#9;c0,18.8,12.7,39.3,28.5,39.3c15.7,0,28.5-20.5,28.5-39.3c0-0.2,0-0.3,0-0.4C244.5,258,229,244,229,244z"/><path fill="#2F211B" d="M254.5,262c-13.7,0-27.5-12.3-29.2-13.9c-1.1-1.1-1.8-2.5-1.8-4.1v-25.7c0-3.1,2.5-5.6,5.6-5.6&#10;&#9;&#9;&#9;&#9;c3.1,0,5.6,2.5,5.6,5.6v23.1c5.2,4.2,16,11.4,22.9,8.9c10.1-3.6,15.3-16.7,15.4-16.9c1.1-2.9,4.4-4.3,7.2-3.2&#10;&#9;&#9;&#9;&#9;c2.9,1.1,4.3,4.3,3.2,7.2c-0.3,0.7-7,18-22,23.4C259,261.6,256.7,262,254.5,262z"/><path fill="#2F211B" d="M229,195.5c-17.5,0-30.2,7.3-30.2,17.3c0,12.8,13.5,28.3,30.2,28.3s30.2-15.5,30.2-28.3&#10;&#9;&#9;&#9;&#9;C259.2,202.7,246.5,195.5,229,195.5z"/><path fill="#F08F83" d="M253.5,273.6c-6.3-4.3-15-7-24.6-7c-9.9,0-18.8,2.9-25.2,7.5c4.9,12,14.1,21.6,24.8,21.6&#10;&#9;&#9;&#9;&#9;C239.4,295.7,248.7,285.8,253.5,273.6z"/><path fill="#F2B6AC" d="M228.9,277.3c7.8,0,14.9,2.1,20.3,5.4c1.7-2.6,3.1-5.5,4.3-8.5c-6.3-4.3-15-7-24.6-7&#10;&#9;&#9;&#9;&#9;c-9.9,0-18.8,2.9-25.2,7.5c1.2,3,2.7,5.8,4.4,8.4C213.6,279.6,220.8,277.3,228.9,277.3z"/><path fill="#2F211B" d="M228.5,301.3c-12.2,0-23.7-9.6-30-25.1c-1-2.4-0.2-5.1,1.9-6.6c15-10.8,40.9-11,56.2-0.6&#10;&#9;&#9;&#9;&#9;c2.2,1.5,3,4.2,2.1,6.6C252.5,291.4,241,301.3,228.5,301.3z M210.9,276.3c4.6,8.6,11.2,13.9,17.7,13.9c6.6,0,13.3-5.5,17.8-14.2&#10;&#9;&#9;&#9;&#9;C236.1,271,221.1,271.1,210.9,276.3z"/><path fill="#583F38" d="M247.6,209.5c0,4.5-8.3,8.1-18.7,8.1c-10.3,0-18.6-3.6-18.6-8.1c0-4.5,8.3-8.1,18.6-8.1&#10;&#9;&#9;&#9;&#9;C239.3,201.4,247.6,205,247.6,209.5z"/></g></g></g></svg>