<svg viewBox="0 0 1487.4 1026.6" width="52px" color="text" xmlns="http://www.w3.org/2000/svg" class="sc-bcXHqe eYNJpu"><ellipse fill="#32201b" cx="740.1" cy="1006.7" rx="623.8" ry="19.9"/><defs><radialGradient id="grad1" cx="482.986" cy="575.318" r="482.9" gradientTransform="matrix(1 0 0 -1 0 1106.035)" gradientUnits="userSpaceOnUse"><stop offset=".424" stop-color="#82b7dc"/><stop offset="1" stop-color="#f1f1f1"/></radialGradient></defs><circle fill="url(#grad1)" cx="483" cy="530.7" r="482.9"/><defs><radialGradient id="grad2" cx="515.91" cy="576.871" r="491.976" fx="486.886" fy="576.814" gradientTransform="matrix(1 0 0 -1 0 1106.035)" gradientUnits="userSpaceOnUse"><stop offset=".269" stop-color="#114084"/><stop offset=".45" stop-color="#144386"/><stop offset=".579" stop-color="#1d4c8d"/><stop offset=".693" stop-color="#2b5c99"/><stop offset=".797" stop-color="#4172a9"/><stop offset=".895" stop-color="#5c8fbe"/><stop offset=".987" stop-color="#7db1d8"/><stop offset="1" stop-color="#82b7dc"/></radialGradient></defs><path fill="url(#grad2)" d="M679.3 513.4c90.4 44.5 190.3 63.7 286.7 24.6.9-47.4-5.5-94.3-17.8-138.1C771.7 542.3 666.8 339.5 483.1 530v-.1.1c90.2-220.1 275-103.3 407.7-258.1-26.4-41.6-59.1-78.9-96.6-110.5-80.7 170.3-272 115-311.2 368.4C427 302.4 665.9 284.4 651.5 78c-49.1-18.3-101.9-28.8-157.1-30 82.3 172.4-114.7 279.2-11.4 482-162.6-123.3-14.3-315.7-126.8-465.3-46.4 12.6-90 31.9-129.7 56.9C379.1 250.5 246.3 414.6 483 530h.1v.1s0 .1-.1.1c0 0 0-.1-.1-.1h.1c-234-14.4-188.6-238.4-371.5-307.7-32.8 39.4-59.1 83.8-77.9 131.5 185.1 9.5 197.4 210 449.3 176.2C317.2 637.4 184.6 434 .1 522c-.9 47.3 5.3 94.3 17.4 138 157.3-133.6 310.6 49.6 465.4-129.9-95.1 224-273.1 100.3-407.9 258.5 26.4 41.6 59 79 96.5 110.7C250.7 729.5 444.4 782.9 483 530.6c54.6 229.9-184 244.7-168.5 452.9 50.5 18.8 103.8 28.9 157.7 30.1-85.8-171.3 114.2-274.4 10.9-483.4 175 153.7 2.8 279.8 127.1 466.5 46.4-12.7 90.1-32.1 129.9-57.1-148.2-124.4-30.8-307-257-409.5v-.1-.1c255.8 28.5 174 230.8 372.3 307.9 32.4-39.2 58.7-83.5 77.5-131.7-185-8.2-198.1-209.8-449.7-176.2 57.4-38.2 133-44 196.1-16.5h0zM483 529.9c0 .1 0 .1 0 0 0 .1 0 .1 0 0 0 .1 0 .1 0 0z"/><path fill="#fff" d="M1393.5 501.4c4.6-18.7 6.6-82.6 5.5-83.2-.2-8.7-2.6-18.1-2-26.4 16-29.8 28.5-64.1 36.1-101 7.1-55.6 32.6-171.3-47.1-176.7-45 2.4-80.4 19.7-125 44.3-14.7-11.1-30.2-21.1-46.6-29.4-26.4-13.6-54.7-23.8-83.8-29.7-29.1-6.1-59.2-8.1-89-6.1-18.5 1.4-36.9 4.4-54.9 8.4-31.2-40.1-56.8-70.2-97.2-90.2-75.7-26.8-98.4 91-113.6 145.2-7.5 36.7-9.4 72.7-6.5 106.2-4.6 7.2-8.7 14.7-12.7 22.3-17.9 32.4-42.8 119-31.5 165.1 5 26.1 15.4 51 30.1 73.8 3.8 5.8 7.6 11.3 11.9 16.8 9 11 19 21.2 29.9 30.3 60.1 48 139.4 79.2 216.2 93.7 76.2 17.3 161.4 19.7 235.5-.5 13.5-4 26.7-9.3 39.2-15.8 6-3.2 11.8-7 17.5-10.7l8.6-6.2c1.5-1.1 3-2.3 4.4-3.4 6.9-5.4 12.9-10.8 18.2-16l4-4c1-1 1.9-2 2.8-2.9l.9-.9c.9-.9 1.7-1.9 2.5-2.8.3-.3.5-.6.8-.9 1.6-1.8 2.9-3.4 4.4-5.2.9-1 1.7-2 2.5-3 .2-.2.4-.4.5-.7.5-.7 1.1-1.4 1.6-2 .2-.2.3-.4.4-.6.7-.8 1.1-1.5 1.7-2.2.4-.5.6-1 1-1.4.3-.4.6-.9.9-1.2.1-.1.2-.2.2-.3l.6-.9c.3-.4.4-.8.7-1h0c14.5-25.1 25.7-52.2 31.3-80.8h0z"/><path fill="#ffa726" d="M1268 687.1c-15.8-28.3-112.5-9.5-187.7 10.2-44.3-20.9-237 7.1-240.8 6.9l20.3 62-31.8 6.5 12.1 5.6c-5.8 1.8-66.4 28.2-67 93.8-13 191.1 280.8 108.7 369 128 128.1 23.5 172.9-238.9 125.9-313zM837.6 441.2c39.5 1.9 181.4-123.3 241.2-95.6 116.9 23 176.3 306.3 311.5 169.4 9.4-33.3 10.1-92.3 7.4-111.8 3.5-36.1 30.8-69.8 35.2-111.7 31.5-165.3-11.4-226.6-171.6-133.4-14.8-9.4-30.4-21.3-47-29.1-52.9-27.4-113.2-39.9-172.8-35.8-17.4 1.3-34.8 4.1-51.9 7.7-42.7-38.3-103.3-138.5-161.8-72.3-46.3 64.1-64.5 156.9-58.5 234.2-1.8 2.9-3.8 5.9-5.4 9-41.2 67.3-69.5 183.1 73.7 169.4h0zm345.5-186c19.9-34.6 56.3-24 69.3 14.6 3.1 46.1-90.4 33.1-69.3-14.6h0zM929.7 203c27.1-30.2 64.9-25.5 69.4 14 .6 52.2-90.6 27.1-69.4-14zm551.8 612.1c-.2-40.2-34.3-113.9-63.5-126.4 9.7 89.3-36 183.1-140.4 183.4-.2-1.1-15.6 48.4-15.6 48.4l-20.4 33.9c66.1 51.2 260.5-28.4 239.9-139.3z"/><path fill="#f28200" d="M1276.5 859.2c-31.2 117.9-321.4 92.6-404.9 92.5-54.9 0-89.8-48.4-93-103.3-43.7 219.9 261.7 134 372.7 147.9 79.3 15.4 120.5-104.1 125.3-140.9"/><path fill="#c03736" d="M1289.3 656l-5.2 36.6c-32.9 16.5-114.2 28.3-149.5 29-19.4-27.6-181.5-31.5-201.7-25.6 18.2-18.8 5.2-51.5 36.1-42.2 111 27.2 227.4 30.6 320.3 2.2"/><path fill="#f28200" d="M851.7 773.7s157.6 57.5 289.9 25.3c-15.7 125.3-275.3 42.5-300.6 20.4l10.7-45.7h0z"/><path fill="#e0e0e0" d="M1022.7 619.5c-233.2-55.2-287.6-167.1-296.9-239.4-3.9 23.3-3.1 47.2-.4 70.5 5 26.1 15.4 51 30.1 73.8 3.8 5.8 7.6 11.3 11.9 16.8 9 11 19 21.2 29.9 30.3 60.1 48 139.4 79.2 216.2 93.7 76.2 17.3 161.4 19.7 235.5-.5 13.5-4 26.7-9.3 39.2-15.8 6-3.2 11.8-7 17.5-10.7l8.6-6.2c1.5-1.1 3-2.3 4.4-3.4 6.9-5.4 12.9-10.8 18.2-16l4-4c1-1 1.9-2 2.8-2.9l.9-.9c.9-.9 1.7-1.9 2.5-2.8.3-.3.5-.6.8-.9 1.6-1.8 2.9-3.4 4.4-5.2.9-1 1.7-2 2.5-3 .2-.2.4-.4.5-.7.5-.7 1.1-1.4 1.6-2 .2-.2.3-.4.4-.6.7-.8 1.1-1.5 1.7-2.2.4-.5.6-1 1-1.4.3-.4.6-.9.9-1.2.1-.1.2-.2.2-.3l.6-.9c.3-.4.4-.8.7-1h0c11.7-20.4 21.8-42 27.5-65-37 62.5-131.3 143.7-367.2 101.9h0z"/><path fill="#ffcc61" d="M1130.1 99.7l-4.7 22.6c-90.2-19.2-147.6 3.8-147.6 3.8-29.6-57.9-76.9-92-103.1-103.5-35.9-19.8-7.1-18.5 14.7-10.6 40.3 20 66.1 50.1 97.2 90.2 46.8-11 96-12.3 143.2-2.5-.2-.1.1-.1.3 0z"/><path fill="#e16e00" d="M938.9 117.6c-69.7 28.1-130.3 80.8-169.5 145.8-4.1-83.2 11.2-192.7 76.9-251 30.7-7 78.8 78.2 92.6 105.2h0z"/><path fill="#c94f00" d="M938.9 117.6c-52.3 21.2-99.9 56.1-136.7 100.1 5.1-63.2 21.7-130.8 59.1-181.6 18.8-34.3 67.6 63.7 77.6 81.5z"/><path fill="#ffcc61" d="M1130.1 99.7l-4.7 22.6c90.4 18.2 134 61.9 134 61.9 50.1-41.4 107.1-54 135.7-54.2 41-4 13.6-14-9.3-15.5-45 2.4-80.4 19.7-125 44.3-14.7-11.1-30.2-21.1-46.6-29.4-26.5-13.6-54.9-24-84.1-29.7h0z"/><path fill="#e16e00" d="M1298.5 191.9c52.8 53.5 87.6 125.9 97.8 201.1 36.8-74.7 66.1-181.5 28.9-261.1-25.6-18.8-103.3 40.8-126.7 60z"/><path fill="#c94f00" d="M1298.5 191.9c39.6 40.2 69.4 91.1 85.8 146.1 20.4-60.1 31.8-128.7 17.8-190.2-5.4-38.7-86.3 31.5-103.6 44.1h0z"/><path fill="#fff" d="M857.1 826.7s40.3-54.9 1.6-121.8c-90-1.6-73.9 99.5-1.6 121.8z"/><path fill="#e0e0e0" d="M874.3 781c-3.4-.9-57.6-14.9-74.6-34.4-4.8 34 22.5 69.2 57.3 80 .1.1 13.2-17.8 17.3-45.6h0z"/><path fill="#fff" d="M1422.5 693.6c61.4 95.5-.2 277.5-160.5 226.9-81.4 103 371.6 45.7 160.5-226.9z"/><path fill="#32201b" d="M938.5 327.7c1.7-26.1-20.4-49.8-46.6-51.2-42.3-4.3-75.6 60.1-29 79.4 19.2 8.7 74.7 12.8 75.6-28.2zm251.2 89.4c29.5 20.5 68 24.5 80.8-5.8 8.9-24.4-5.1-54-29.4-62.6-39.8-17-91.1 36.8-51.4 68.4h0zm-224.5 63.1c-.1 0-.1 0 0 0-.1 0-10.5 74.1 45.9 90.7v.1c58.4 7.2 78.2-65 78.2-65l-.1-.1c15.8-1.2 39.7-23.2 45.1-33.6 7-10.6-9.3-21-16.1-10.4-17.6 25.7-46.6 41.3-72.5-1.7 8.6-.3 16.3-2.2 22.8-5.5 96.2-58-54.8-113-77.6-61.1-5.7 34.7 17.2 54.2 32.5 61.9-41.1 29.3-61.4 3.5-67.4-27.2-.9-5.2-5.8-8.8-11-7.9-13.1 4.1-7.6 15.3-1.2 32.5 5.3 12.1 12.7 21.4 21.4 27.3h0zM1479 771.1c-9.8-34.6-62.2-121.8-67.9-84.6 11.8 87.6-30.5 167.5-126 177 12-42.4 3.8-148.3-1.8-162.1 4.8-1.9 4.6-1.9 8-3.5l2.8-44.5 3.8-2.2c.7-.3 1.5-.9 2.1-1.2.6-.5 1.4-1 2.1-1.3.7-.4 1.4-.8 2-1.3h.1c1.2-.7 2.6-1.5 3.7-2.3.7-.3 1.4-1 2.1-1.3.7-.4 1.2-.9 1.9-1.3l3.4-2.4c0-.1.2-.1.2-.1 9.5-6.9 18.3-14.3 26.8-22.6 1.5-1.4 2.8-2.8 4.1-4.1.1 0 .1-.1.1-.1l3.8-4c1.2-1.2 2.3-2.5 3.4-3.7.1 0 .1-.1.1-.1.8-.8 1.5-1.7 2.3-2.6.1 0 .1-.1.1-.1.6-.7 1.4-1.6 2.1-2.5v-.1c.2-.2.5-.6.7-.8 2.5-2.9 4.8-6.2 7.2-9.2.1 0 .3-.4.4-.5.4-.4.6-.8.9-1.2 22.3-35 34.8-75.3 37.4-116.8 3.3-51 2.3-47.5-.6-77.4 36-67 66.1-198.1 27.7-265.7-34.5-47.5-125.6-1.6-169.9 22.2-5.4-4-10.9-7.7-16.5-11.4 0-.1-.1-.1-.1-.1-15.7-10.3-32.5-19-49.7-26.5-64.3-27.5-137.4-33.9-205.6-18.3-31.7-39.6-96.6-118.1-147.7-87.5-63 46.8-85.8 180.8-80.5 256.6-13.9 24.6-13.5 21.8-30.3 68.9-13.6 38.3-17.6 78.7-12.3 118.9.6 3 1.1 6.3 1.8 9.4 4.5 18.2 11.5 36.2 20.5 52.7 1 1.6 1.9 3.5 2.9 5.1.7 1.1 1.5 2.4 2.2 3.8 1 2 2.4 3.8 3.4 5.8 1.7 2.6 3.2 5.1 5 7.6.5.6.9 1.2 1.3 1.8.5.6 1 1.5 1.6 2.1 1.3 2 2.9 3.8 4.3 5.7.4.6.9 1.3 1.4 1.8.6.6 1.1 1.3 1.6 1.9 0 .1.1.1.1.2l5.1 5.9a176.85 176.85 0 0 0 10.3 10.9c43.8 40.7 103.2 69.5 162.1 88.6-1.6 7-5 19.9-11.5 35.4l-92.5 7.8c-13.3 1.1-25.5 7.2-34.3 17.2-20.1 21.9-13.2 56.6-2.9 80.8-46.8 40.7-42.6 100.7-16.4 156.2 15.2 33.4 50.4 55.7 87.1 55.4h284.1c36.1.6 65.8-22 87.4-48.9 25.3 13.2 92.5 23.6 129.4 8.5 80.1-24.8 135.9-114.2 105.6-195.9zM1349 610s0-.1.1-.1l-.1.1zm68.3-477.6c36.9 55.8 10.5 179-17.8 239.2-12.9-66.7-44.7-130-91.3-179.3 31.7-26.9 69.2-47.9 109.1-59.9zm-634.6 25c11.5-49.6 30.2-116.6 70.7-141.2 31.8 26.8 58.2 60.7 76.5 97.9-62.3 26.9-116.7 72.3-155 128.5-.7-28 1.9-56.5 7.8-85.2h0zm127.6 471c-40.8-16.3-79.3-38.1-110.8-63.6h-.1c-1.3-1-2.6-2.2-3.8-3.3-.7-.4-1.2-1.1-1.9-1.6-7.9-6.8-15.1-14.6-21.6-22.7-.5-.5-.9-1.1-1.3-1.6-.3-.6-.8-1.2-1.3-1.8 0-.1-.1-.1-.1-.2-.9-1-1.7-2.2-2.5-3.3-.1 0-.1-.1-.1-.1a14.29 14.29 0 0 1-1.4-2c-.4-.5-.7-1.1-1.1-1.6-.5-.5-.8-1.3-1.3-1.9-.1 0-.1-.1-.1-.1-.4-.5-.7-1.1-1.1-1.6-.3-.7-.9-1.3-1.2-2-.3-.5-.8-1.1-1-1.7-2.3-3.9-4.7-7.7-6.8-11.7-6.8-12.3-12.2-25.6-16.6-38.9-.7-2-1.2-4.4-1.8-6.7-.2-1.4-.8-2.6-.9-4v-.1a94.34 94.34 0 0 0-.6-2.5c-.4-1.2-.5-2.5-.8-3.7-5.8-38.6-1.6-77.5 11.5-114.2C777.3 234.9 847 164.4 941.3 123.8c16.5-4.3-32-67.8-38.8-76.4-9.5-11.7-20-22.8-31.1-33 5.3.9 10.6 2.4 15.5 4.1 36.2 17.4 65.4 50.5 93.6 87 1.5 2.7 4.7 4.2 7.6 3.3 8.7-2.2 17.5-3.9 26.4-5.2 1.2-.2 2.5-.4 3.7-.5 15.6-2.4 31.4-3.3 47.2-3.2 18.5-.1 36.9 1.8 55.1 5l8.7 1.7c10.4 2.4 20.8 4.8 31 8 2.3.6 4.6 1.4 6.8 2.1 7.4 2.6 14.8 5.5 22.1 8.4 14.7 6.1 28.6 13.7 42.4 21.6l.1.1c6.6 4.3 13.4 8.5 19.7 13.3 1.7 1.4 3.7 2.7 5.4 4.2 2.3 1.8 5.8 1.9 8.2-.1 41.5-22.5 95.1-49.8 136.6-40.5-14.3 5-28.3 11-41.8 18-23.8 12.3-45.9 27.5-65.6 45.2-1.3 1.3-2.1 3-2.2 4.8 56.3 65.7 95.4 137.3 100.3 227.1.1 1.3.7 24.8-1.7 52.4-2.4 38.4-13.7 74.9-33.5 107.9-.1 0-.1.1-.1.1-.1.1-.2.3-.4.6-.2.2-.3.5-.6.9-.1 0-.1.1-.1.1l-.2.2v.1c-.4.4-.8 1.1-1.2 1.6-1.6 2-3.2 4.3-5 6.3-.7.8-1.2 1.5-1.7 2.1-.1 0-.1.1-.1.1-1.7 1.9-3.3 3.9-4.9 5.7-.1 0-.1.1-.1.1-1.3 1.5-2.7 3-4.1 4.4 0 0-.1 0-.1.1l-6.6 6.7c-8 7.6-16.3 14.9-25.3 21.2-1.1.8-2.2 1.5-3.3 2.3 0 .1-.1.1-.1.1 0 .1-.1.1-.1.1-.5.4-1.1.7-1.6 1.1-1.3.5-2.4 1.7-3.7 2.2-.6.5-1.2.8-1.8 1.2-.4.5-1.2.7-1.7 1.1-.6.4-1.3 1-2.1 1.3-1.9 1.3-3.9 2.1-5.8 3.3-.7.3-1.3.7-1.9 1-2.5 1.6-5.4 2.9-8.1 4.2-2.6 1.5-5.6 2.6-8.4 3.9-75.8 28.9-173.6 26.3-253.5 7.4-35.7-6.9-70.6-16.8-104.1-30.2h0zm370.5 31.8l-1.9 28.9c-39.8 15.3-85.5 25.8-144.8 23.3-55.2-34.8-125.9-31.3-188.3-23.7 5.1-13 8-23.8 9.6-30.4 101.6 28.8 226.6 43.1 325.2 2 0 0 .1-.1.2-.1h0zm-79 320.3c-13.3 9.1-29 13.9-45.3 13.9H872.4c-15.8 0-31.3-4.5-44.7-13a82.93 82.93 0 0 1-30.7-34.9c-23.2-50-28.9-102.6 12.1-139.9 4 4.5 8.8 8.4 14.3 11.3 14.4 7.6 42.2 21.4 78 34 2.7 4.1 11.6 19.8 18.6 59.7.6 3.2 3.3 5.4 6.4 5.4 4 0 7-3.7 6.3-7.6-4.4-25.2-9.6-41.5-13.9-51.8 19 8.3 152.7 35.4 150.6 15-.1-3.6-3.1-6.4-6.7-6.3-66.7 5.4-178.2-27.8-233.1-59.7-8.3-4.5-14.6-11.7-17.9-20.4-4.1-10.8-6.4-22.8-6.9-35.6-.8-20.6 14.7-38.2 35.3-39.9l165.6-14c49.2-4.1 98.6 9.3 138.9 37.7 5.3 4 12.9-3 9.2-8.6 50-1.1 80.9-8 117.2-19.8 16.3 71.7 13.1 225-69.2 274.5h0zm231-65.2c-45.4 50.7-125.7 56.6-180.9 32.4 14.1-20.8 24.1-45.4 30.2-70.7 98.2-8.1 150.1-84.8 143.1-176.7 49.1 55.4 74 155.2 7.6 215h0z"/><path fill="#fff" d="M902.5 291c20.9-.3 20.9 32.5 0 32.2-20.9.3-20.9-32.5 0-32.2zm316.7 65.5c20.9-.3 20.9 32.5 0 32.2-20.9.3-20.9-32.5 0-32.2z"/><path fill="#5c3e37" d="M1014.1 394c2.8-18.8 72.6-4.4 67.8 14-2.9 18.8-72.7 4.4-67.8-14z"/><path fill="#ffb5ab" d="M1022.3 517.2c.2.1-20.1-3.5-33.8.6 3.5 11.2 11.6 29 26.9 32.9 15.5 2.7 30.6-10.9 37.7-19.5-11.4-9.2-29.8-13.7-30.8-14h0z"/><path fill="#ff8a80" d="M1020.3 526.7c-28.2-6-42.2 2-5 24 41-4.2 33.7-18.8 5-24z"/></svg>